<svg width="22" height="22" viewBox="0 0 22 22" fill="none" xmlns="http://www.w3.org/2000/svg">
<g clip-path="url(#clip0_13_59)">
<path d="M0.760499 17.5741C-0.249268 18.5839 -0.249268 20.2296 0.760499 21.2437C1.77026 22.2534 3.41597 22.2534 4.42574 21.2437L5.4312 20.2253L1.76167 16.5558L0.760499 17.5741Z" fill="#595959"/>
<path d="M11.7906 10.2394C11.6273 10.0718 11.3996 9.97729 11.1719 9.97729C11.0945 9.97729 11.0172 9.98589 10.9398 10.0074L7.45078 10.9742C7.30898 11.0128 7.17578 11.0902 7.07266 11.1933L2.83594 15.4773L6.50547 19.1468L10.7508 14.8585C10.8496 14.7597 10.927 14.6351 10.9656 14.4976L12.0012 11.0945C12.0914 10.7894 12.0141 10.4628 11.7906 10.2394Z" fill="#595959"/>
<path d="M19.4219 7.99219H18.9879C18.8762 7.99219 18.7687 7.91914 18.7258 7.81172L18.7172 7.79453C18.6699 7.68281 18.6914 7.5582 18.773 7.47656L19.0781 7.17148C20.0836 6.16602 20.0836 4.52891 19.0781 3.52344L18.4766 2.91758C17.991 2.43203 17.3422 2.16133 16.6547 2.16133C15.9672 2.16133 15.3184 2.42773 14.8328 2.91758L14.5234 3.22266C14.4418 3.3043 14.3172 3.32578 14.2098 3.27852L14.1926 3.26992C14.0809 3.22266 14.0078 3.11953 14.0078 3.00781V2.57812C14.0078 1.15586 12.852 0 11.4297 0H10.5703C9.14805 0 7.99219 1.15586 7.99219 2.57812V3.01211C7.99219 3.12383 7.91914 3.23125 7.81172 3.27422L7.79453 3.28281C7.68281 3.33008 7.5582 3.30859 7.47656 3.22695L7.17148 2.92188C6.68594 2.43633 6.03711 2.16563 5.34961 2.16563C4.66211 2.16563 4.01328 2.43203 3.52773 2.92188L2.91758 3.52773C1.91211 4.5332 1.91211 6.17031 2.91758 7.17578L3.22266 7.47656C3.3043 7.5582 3.32578 7.68281 3.27852 7.79453L3.27422 7.80742C3.22695 7.91914 3.12383 7.99219 3.01211 7.99219H2.57812C1.15586 7.99219 0 9.14805 0 10.5703V11.4297C0 12.5641 0.726172 13.5523 1.80469 13.8918C2.25586 14.0336 2.74141 13.7801 2.8832 13.3289C3.025 12.8777 2.77148 12.3922 2.32031 12.2504C1.95938 12.1387 1.71875 11.8078 1.71875 11.4297V10.5703C1.71875 10.0977 2.10547 9.71094 2.57812 9.71094H3.01211C3.82422 9.71094 4.55039 9.22109 4.86406 8.46484L4.86836 8.45625C5.18203 7.7 5.01445 6.84063 4.43867 6.26484L4.13359 5.95977C3.79844 5.62461 3.79844 5.07891 4.13359 4.74375L4.73945 4.13789C4.90273 3.97461 5.11758 3.88438 5.34531 3.88438C5.57305 3.88438 5.79219 3.97461 5.95117 4.13789L6.25625 4.44297C6.83203 5.01875 7.69141 5.18633 8.44766 4.87266L8.46055 4.86836C9.2168 4.55469 9.70664 3.82852 9.70664 3.01641V2.57812C9.70664 2.10547 10.0934 1.71875 10.566 1.71875H11.4254C11.898 1.71875 12.2848 2.10547 12.2848 2.57812V3.01211C12.2848 3.82422 12.7746 4.55039 13.5309 4.86406L13.5438 4.86836C14.3 5.18203 15.1594 5.01445 15.7352 4.43867L16.0402 4.13359C16.2035 3.97031 16.4184 3.88008 16.6461 3.88008C16.8738 3.88008 17.093 3.97031 17.252 4.13359L17.8578 4.73945C18.193 5.07461 18.193 5.62031 17.8578 5.95547L17.5527 6.26055C16.977 6.83633 16.8094 7.6957 17.123 8.44766L17.1316 8.46484C17.4453 9.22109 18.1715 9.71094 18.9836 9.71094H19.4219C19.8945 9.71094 20.2812 10.0977 20.2812 10.5703V11.4297C20.2812 11.9023 19.8945 12.2891 19.4219 12.2891H18.9879C18.1758 12.2891 17.4496 12.7789 17.1359 13.5352L17.1316 13.548C16.818 14.3043 16.9855 15.1637 17.5613 15.7395L17.8664 16.0445C18.0297 16.2078 18.1199 16.4227 18.1199 16.6504C18.1199 16.8781 18.0297 17.0973 17.8664 17.2563L17.2605 17.8621C17.0973 18.0254 16.8824 18.1156 16.6547 18.1156C16.427 18.1156 16.2078 18.0254 16.0488 17.8621L15.7437 17.557C15.168 16.9813 14.3086 16.8137 13.5523 17.1273L13.5395 17.1316C12.7832 17.4453 12.2934 18.1715 12.2934 18.9836V19.4219C12.2934 19.8945 11.9066 20.2812 11.434 20.2812H10.5746C10.218 20.2812 9.8957 20.0578 9.7668 19.7227C9.59922 19.2801 9.10508 19.0523 8.6625 19.2199C8.21992 19.3875 7.99219 19.8816 8.15977 20.3242C8.53359 21.3254 9.50469 22 10.5746 22H11.434C12.8562 22 14.0121 20.8441 14.0121 19.4219V18.9879C14.0121 18.8762 14.0852 18.7687 14.1926 18.7258L14.2098 18.7172C14.3215 18.6699 14.4461 18.6914 14.5277 18.773L14.8328 19.0781C15.3184 19.5637 15.9672 19.8344 16.6547 19.8344C17.3422 19.8344 17.991 19.568 18.4766 19.0781L19.0824 18.4723C19.568 17.9867 19.8387 17.3379 19.8387 16.6504C19.8387 15.9629 19.5723 15.3141 19.0824 14.8285L18.7773 14.5234C18.6957 14.4418 18.6742 14.3172 18.7215 14.2055L18.7301 14.1883C18.7773 14.0766 18.8805 14.0035 18.9922 14.0035H19.4219C20.8441 14.0035 22 12.8477 22 11.4254V10.566C22 9.14805 20.8441 7.99219 19.4219 7.99219Z" fill="#595959"/>
<path d="M13.7457 11.0645C13.7457 9.51763 12.4867 8.25864 10.9398 8.25864C9.83555 8.25864 8.82578 8.92466 8.37031 9.96021C8.20703 10.334 7.76875 10.5016 7.39492 10.3383C7.02109 10.175 6.85352 9.73677 7.0168 9.36294C7.70859 7.79458 9.24688 6.78052 10.9398 6.78052C13.3031 6.78052 15.2238 8.70122 15.2238 11.0645C15.2238 12.779 14.2055 14.3215 12.6328 15.0004C12.5383 15.0434 12.4395 15.0606 12.3406 15.0606C12.0527 15.0606 11.782 14.893 11.6617 14.6137C11.4984 14.2399 11.6746 13.8059 12.0484 13.6426C13.0797 13.2 13.7457 12.186 13.7457 11.0645Z" fill="#595959"/>
</g>
<defs>
<clipPath id="clip0_13_59">
<rect width="22" height="22" fill="white"/>
</clipPath>
</defs>
</svg>
