<svg width="22" height="22" viewBox="0 0 22 22" fill="none" xmlns="http://www.w3.org/2000/svg">
<path d="M7.73438 13.4062H2.57812C1.15729 13.4062 0 14.5635 0 15.9844V19.4219C0 20.8427 1.15729 22 2.57812 22H7.73438C9.15521 22 10.3125 20.8427 10.3125 19.4219V15.9844C10.3125 14.5635 9.15521 13.4062 7.73438 13.4062ZM8.59375 19.4219C8.59375 19.8974 8.2099 20.2812 7.73438 20.2812H2.57812C2.1026 20.2812 1.71875 19.8974 1.71875 19.4219V15.9844C1.71875 15.5089 2.1026 15.125 2.57812 15.125H7.73438C8.2099 15.125 8.59375 15.5089 8.59375 15.9844V19.4219ZM19.4219 0H14.2656C12.8448 0 11.6875 1.15729 11.6875 2.57812V6.01562C11.6875 7.43646 12.8448 8.59375 14.2656 8.59375H19.4219C20.8427 8.59375 22 7.43646 22 6.01562V2.57812C22 1.15729 20.8427 0 19.4219 0ZM20.2812 6.01562C20.2812 6.49115 19.8974 6.875 19.4219 6.875H14.2656C13.7901 6.875 13.4062 6.49115 13.4062 6.01562V2.57812C13.4062 2.1026 13.7901 1.71875 14.2656 1.71875H19.4219C19.8974 1.71875 20.2812 2.1026 20.2812 2.57812V6.01562ZM19.4219 9.96875H14.2656C12.8448 9.96875 11.6875 11.126 11.6875 12.5469V19.4219C11.6875 20.8427 12.8448 22 14.2656 22H19.4219C20.8427 22 22 20.8427 22 19.4219V12.5469C22 11.126 20.8427 9.96875 19.4219 9.96875ZM20.2812 19.4219C20.2812 19.8974 19.8974 20.2812 19.4219 20.2812H14.2656C13.7901 20.2812 13.4062 19.8974 13.4062 19.4219V12.5469C13.4062 12.0714 13.7901 11.6875 14.2656 11.6875H19.4219C19.8974 11.6875 20.2812 12.0714 20.2812 12.5469V19.4219ZM7.73438 0H2.57812C1.15729 0 0 1.15729 0 2.57812V9.45312C0 10.874 1.15729 12.0312 2.57812 12.0312H7.73438C9.15521 12.0312 10.3125 10.874 10.3125 9.45312V2.57812C10.3125 1.15729 9.15521 0 7.73438 0ZM8.59375 9.45312C8.59375 9.92865 8.2099 10.3125 7.73438 10.3125H2.57812C2.1026 10.3125 1.71875 9.92865 1.71875 9.45312V2.57812C1.71875 2.1026 2.1026 1.71875 2.57812 1.71875H7.73438C8.2099 1.71875 8.59375 2.1026 8.59375 2.57812V9.45312Z" fill="#AD0025"/>
</svg>
