<svg width="24" height="24" viewBox="0 0 24 24" fill="none" xmlns="http://www.w3.org/2000/svg">
<path d="M16.2188 0H7.78125C6.61809 0 5.67188 0.946219 5.67188 2.10938V6.42188C5.67188 7.58503 6.61809 8.53125 7.78125 8.53125H16.2188C17.3819 8.53125 18.3281 7.58503 18.3281 6.42188V2.10938C18.3281 0.946219 17.3819 0 16.2188 0Z" fill="#CB002B"/>
<path d="M22.5938 16.9688H21.1875V16.2656C21.1875 15.1025 20.2413 14.1562 19.0781 14.1562H12.7031V12.7453C12.8355 12.7453 14.6876 12.7453 14.8125 12.7453C15.2011 12.7453 15.5156 12.4355 15.5156 12.0469C15.5156 11.6582 15.2011 11.3438 14.8125 11.3438H14.1094V9.9375H9.89062V11.3438H9.1875C8.79886 11.3438 8.48438 11.6582 8.48438 12.0469C8.48438 12.4355 8.79886 12.7453 9.1875 12.7453C9.31987 12.7453 11.172 12.7453 11.2969 12.7453V14.1562H4.92188C3.75872 14.1562 2.8125 15.1025 2.8125 16.2656V16.9688H1.40625C0.629578 16.9688 0 17.5983 0 18.375V19.7812C0 20.5578 0.629578 21.1875 1.40625 21.1875H2.8125V22.5938H2.10938C1.72073 22.5938 1.40625 22.9082 1.40625 23.2969C1.40625 23.6855 1.72073 24 2.10938 24H4.92188C5.31052 24 5.625 23.6855 5.625 23.2969C5.625 22.9082 5.31052 22.5938 4.92188 22.5938H4.21875V21.1875H5.625C6.40167 21.1875 7.03125 20.5578 7.03125 19.7812V18.375C7.03125 17.5983 6.40167 16.9688 5.625 16.9688H4.21875V16.2656C4.21875 15.8777 4.53394 15.5625 4.92188 15.5625H11.2969V16.9688H9.89062C9.11395 16.9688 8.48438 17.5983 8.48438 18.375V19.7812C8.48438 20.5578 9.11395 21.1875 9.89062 21.1875H11.2969V22.5938H10.5938C10.2051 22.5938 9.89062 22.9082 9.89062 23.2969C9.89062 23.6855 10.2051 24 10.5938 24H13.4062C13.7949 24 14.1094 23.6855 14.1094 23.2969C14.1094 22.9082 13.7949 22.5938 13.4062 22.5938H12.7031V21.1875H14.1094C14.886 21.1875 15.5156 20.5578 15.5156 19.7812V18.375C15.5156 17.5983 14.886 16.9688 14.1094 16.9688H12.7031V15.5625H19.0781C19.4661 15.5625 19.7812 15.8777 19.7812 16.2656V16.9688H18.375C17.5983 16.9688 16.9688 17.5983 16.9688 18.375V19.7812C16.9688 20.5578 17.5983 21.1875 18.375 21.1875H19.7812V22.5938H19.0781C18.6895 22.5938 18.375 22.9082 18.375 23.2969C18.375 23.6855 18.6895 24 19.0781 24H21.8906C22.2793 24 22.5938 23.6855 22.5938 23.2969C22.5938 22.9082 22.2793 22.5938 21.8906 22.5938H21.1875V21.1875H22.5938C23.3704 21.1875 24 20.5578 24 19.7812V18.375C24 17.5983 23.3704 16.9688 22.5938 16.9688Z" fill="#CB002B"/>
</svg>
