<svg width="24" height="24" viewBox="0 0 24 24" fill="none" xmlns="http://www.w3.org/2000/svg">
<g clip-path="url(#clip0_9_392)">
<path d="M21.7914 3.01245H2.20861C0.990797 3.01245 0 4.0032 0 5.22256C0 6.44037 0.990797 7.43117 2.20861 7.43117H21.7914C23.0092 7.43117 24 6.44037 24 5.22256C24 4.0032 23.0092 3.01245 21.7914 3.01245Z" fill="#44494D"/>
<path d="M21.7914 9.79053H2.20861C0.990797 9.79053 0 10.7813 0 12.0006C0 13.2184 0.990797 14.2092 2.20861 14.2092H21.7914C23.0092 14.2092 24 13.2184 24 12.0006C24 10.7813 23.0092 9.79053 21.7914 9.79053Z" fill="#44494D"/>
<path d="M21.7914 16.5688H2.20861C0.990797 16.5688 0 17.5596 0 18.779C0 19.9968 0.990797 20.9876 2.20861 20.9876H21.7914C23.0092 20.9876 24 19.9968 24 18.779C24 17.5596 23.0092 16.5688 21.7914 16.5688Z" fill="#44494D"/>
</g>
<defs>
<clipPath id="clip0_9_392">
<rect width="24" height="24" fill="white"/>
</clipPath>
</defs>
</svg>
