<svg width="24" height="24" viewBox="0 0 24 24" fill="none" xmlns="http://www.w3.org/2000/svg">
<g clip-path="url(#clip0_78_2653)">
<path d="M12.7533 13.4562C16.4632 13.4562 19.4814 10.438 19.4814 6.72811C19.4814 3.01823 16.4632 0 12.7533 0C9.04333 0 6.02515 3.01823 6.02515 6.72811C6.02515 10.438 9.04338 13.4562 12.7533 13.4562ZM12.0501 3.79533V3.71564C12.0501 3.32733 12.3649 3.01252 12.7533 3.01252C13.1416 3.01252 13.4564 3.32733 13.4564 3.71564V3.76561H13.5064C13.8947 3.76561 14.2095 4.08042 14.2095 4.46873C14.2095 4.85705 13.8947 5.17186 13.5064 5.17186H12.3767C12.1414 5.17186 11.9501 5.3632 11.9501 5.59847C11.9501 5.83369 12.1414 6.02503 12.3767 6.02503H13.1299C14.1405 6.02503 14.9627 6.84722 14.9627 7.85789C14.9627 8.757 14.3118 9.50644 13.4564 9.66098V9.74067C13.4564 10.129 13.1416 10.4438 12.7533 10.4438C12.365 10.4438 12.0502 10.129 12.0502 9.74067V9.6907H12.0002C11.6118 9.6907 11.297 9.37589 11.297 8.98758C11.297 8.59927 11.6118 8.28445 12.0002 8.28445H13.1299C13.3651 8.28445 13.5565 8.09311 13.5565 7.85789C13.5565 7.62262 13.3651 7.43128 13.1299 7.43128H12.3768C11.3661 7.43128 10.5439 6.60909 10.5439 5.59847C10.5439 4.69931 11.1949 3.94988 12.0501 3.79533Z" fill="#686C6F"/>
<path d="M22.1049 4.3447L23.6112 3.59156C23.9585 3.41793 24.0993 2.99559 23.9256 2.64825C23.7519 2.3009 23.3297 2.16014 22.9823 2.33376L21.476 3.0869C21.1286 3.26053 20.9879 3.68287 21.1616 4.03021C21.3359 4.37887 21.7589 4.51757 22.1049 4.3447Z" fill="#686C6F"/>
<path d="M23.6112 9.86491L22.1049 9.11178C21.7577 8.93829 21.3352 9.07892 21.1616 9.42626C20.9879 9.7736 21.1286 10.1959 21.476 10.3696L22.9823 11.1227C23.3292 11.2961 23.7517 11.156 23.9256 10.8082C24.0993 10.4609 23.9585 10.0385 23.6112 9.86491Z" fill="#686C6F"/>
<path d="M4.03033 3.08683L2.52405 2.33364C2.17666 2.16002 1.75441 2.30078 1.58074 2.64812C1.40707 2.99547 1.54783 3.41781 1.89518 3.59144L3.40146 4.34458C3.74744 4.5175 4.17044 4.3788 4.34477 4.03009C4.51844 3.68275 4.37768 3.26045 4.03033 3.08683Z" fill="#686C6F"/>
<path d="M3.40146 9.11178L1.89518 9.86491C1.54783 10.0385 1.40707 10.4609 1.58074 10.8082C1.75465 11.156 2.17718 11.2961 2.52405 11.1227L4.03033 10.3696C4.37768 10.1959 4.51844 9.7736 4.34477 9.42626C4.1711 9.07892 3.74862 8.93829 3.40146 9.11178Z" fill="#686C6F"/>
<path d="M19.0239 15.4336L15.6232 18.8344C15.2054 19.2517 14.6508 19.4814 14.0613 19.4814H11.5095C11.1309 19.4814 10.8051 19.1904 10.7873 18.8122C10.7683 18.4085 11.09 18.0751 11.4896 18.0751H13.7666C14.5985 18.0751 15.2729 17.4007 15.2729 16.5689C15.2729 15.737 14.5985 15.0627 13.7666 15.0627H9.18077C7.04772 15.0627 6.37188 16.8595 6.25984 17.322H5.17188V22.4939H14.8677C15.742 22.4939 16.5642 22.1533 17.183 21.5348L22.2878 16.4298C22.555 16.1626 22.5712 15.718 22.2844 15.432C21.3496 14.4995 19.8986 14.5588 19.0239 15.4336Z" fill="#686C6F"/>
<path d="M3.06253 15.8157H0.703125C0.314812 15.8157 0 16.1305 0 16.5188V23.2969C0 23.6852 0.314812 24 0.703125 24H3.06248C3.4508 24 3.76561 23.6852 3.76561 23.2969V16.5188C3.76566 16.1305 3.45084 15.8157 3.06253 15.8157Z" fill="#686C6F"/>
</g>
<defs>
<clipPath id="clip0_78_2653">
<rect width="24" height="24" fill="white"/>
</clipPath>
</defs>
</svg>
