<svg width="8" height="13" viewBox="0 0 8 13" fill="none" xmlns="http://www.w3.org/2000/svg">
<path d="M4.15512 0.152795C4.0558 0.0534744 3.9221 -6.67572e-06 3.79222 -6.67572e-06C3.66234 -6.67572e-06 3.52864 0.049654 3.42932 0.152795L0.151728 3.43038C-0.0507336 3.63285 -0.0507336 3.95755 0.151728 4.16001C0.35419 4.36247 0.678893 4.36247 0.881355 4.16001L3.27652 1.76103L3.27652 12.2241C3.27652 12.5106 3.50572 12.7398 3.79222 12.7398C4.07872 12.7398 4.30792 12.5106 4.30792 12.2241L4.30792 1.76103L6.70691 4.16001C6.90937 4.36247 7.23407 4.36247 7.43653 4.16001C7.63899 3.95755 7.63899 3.63285 7.43653 3.43038L4.15512 0.152795Z" fill="#44494D"/>
</svg>
