<svg width="8" height="13" viewBox="0 0 8 13" fill="none" xmlns="http://www.w3.org/2000/svg">
<path d="M4.15525 0.152795C4.05592 0.0534744 3.92222 -6.67572e-06 3.79234 -6.67572e-06C3.66246 -6.67572e-06 3.52876 0.049654 3.42944 0.152795L0.15185 3.43038C-0.0506115 3.63285 -0.0506115 3.95755 0.15185 4.16001C0.354312 4.36247 0.679015 4.36247 0.881477 4.16001L3.27664 1.76103L3.27664 12.2241C3.27664 12.5106 3.50584 12.7398 3.79234 12.7398C4.07884 12.7398 4.30805 12.5106 4.30805 12.2241L4.30805 1.76103L6.70703 4.16001C6.90949 4.36247 7.23419 4.36247 7.43665 4.16001C7.63912 3.95755 7.63912 3.63285 7.43665 3.43038L4.15525 0.152795Z" fill="#C62F2D"/>
<path d="M4.15525 0.152795C4.05592 0.0534744 3.92222 -6.67572e-06 3.79234 -6.67572e-06C3.66246 -6.67572e-06 3.52876 0.049654 3.42944 0.152795L0.15185 3.43038C-0.0506115 3.63285 -0.0506115 3.95755 0.15185 4.16001C0.354312 4.36247 0.679015 4.36247 0.881477 4.16001L3.27664 1.76103L3.27664 12.2241C3.27664 12.5106 3.50584 12.7398 3.79234 12.7398C4.07884 12.7398 4.30805 12.5106 4.30805 12.2241L4.30805 1.76103L6.70703 4.16001C6.90949 4.36247 7.23419 4.36247 7.43665 4.16001C7.63912 3.95755 7.63912 3.63285 7.43665 3.43038L4.15525 0.152795Z" fill="#EA0029"/>
</svg>
