<svg width="8" height="14" viewBox="0 0 8 14" fill="none" xmlns="http://www.w3.org/2000/svg">
<path d="M3.63711 13.2459C3.73643 13.3453 3.87014 13.3987 4.00002 13.3987C4.1299 13.3987 4.2636 13.3491 4.36292 13.2459L7.64051 9.96836C7.84297 9.7659 7.84297 9.44119 7.64051 9.23873C7.43805 9.03627 7.11334 9.03627 6.91088 9.23873L4.51572 11.6377V1.17464C4.51572 0.888138 4.28652 0.658936 4.00002 0.658936C3.71351 0.658936 3.48431 0.888138 3.48431 1.17464V11.6377L1.08533 9.23873C0.882869 9.03627 0.558166 9.03627 0.355704 9.23873C0.153242 9.44119 0.153242 9.7659 0.355704 9.96836L3.63711 13.2459Z" fill="#44494D"/>
</svg>
