<svg width="8" height="13" viewBox="0 0 8 13" fill="none" xmlns="http://www.w3.org/2000/svg">
<path d="M3.43326 12.587C3.53258 12.6863 3.66628 12.7398 3.79616 12.7398C3.92604 12.7398 4.05974 12.6902 4.15906 12.587L7.43665 9.30942C7.63911 9.10696 7.63911 8.78226 7.43665 8.5798C7.23419 8.37733 6.90949 8.37733 6.70702 8.5798L4.31186 10.9788V0.515705C4.31186 0.229202 4.08266 0 3.79616 0C3.50966 0 3.28045 0.229202 3.28045 0.515705V10.9788L0.881473 8.5798C0.679011 8.37733 0.354308 8.37733 0.151846 8.5798C-0.0506154 8.78226 -0.0506154 9.10696 0.151846 9.30942L3.43326 12.587Z" fill="#C62F2D"/>
<path d="M3.43326 12.587C3.53258 12.6863 3.66628 12.7398 3.79616 12.7398C3.92604 12.7398 4.05974 12.6902 4.15906 12.587L7.43665 9.30942C7.63911 9.10696 7.63911 8.78226 7.43665 8.5798C7.23419 8.37733 6.90949 8.37733 6.70702 8.5798L4.31186 10.9788V0.515705C4.31186 0.229202 4.08266 0 3.79616 0C3.50966 0 3.28045 0.229202 3.28045 0.515705V10.9788L0.881473 8.5798C0.679011 8.37733 0.354308 8.37733 0.151846 8.5798C-0.0506154 8.78226 -0.0506154 9.10696 0.151846 9.30942L3.43326 12.587Z" fill="#EA0029"/>
</svg>
